<svg id="Capa_1" enable-background="new 0 0 512 512" height="512" viewBox="0 0 512 512" width="512" xmlns="http://www.w3.org/2000/svg"><g><g><path d="m484.297 504.5c11.158 0 20.203-9.045 20.203-20.203v-369.72h-497v369.72c0 11.158 9.045 20.203 20.203 20.203z" fill="#f5fcff"/></g><g><path d="m464.094 114.577v389.923h20.203c11.158 0 20.203-9.045 20.203-20.203v-369.72z" fill="#e6f7fe"/></g><g><path d="m504.5 114.577h-497v-54.549c0-11.158 9.045-20.203 20.203-20.203h456.594c11.158 0 20.203 9.045 20.203 20.203z" fill="#4172ca"/></g><g><path d="m484.297 39.825h-20.203v74.752h40.406v-54.549c0-11.157-9.045-20.203-20.203-20.203z" fill="#3a67c1"/></g><g><path d="m433.789 72.15h-24.244c-4.463 0-8.081-3.618-8.081-8.081v-48.488c0-4.463 3.618-8.081 8.081-8.081h24.244c4.463 0 8.081 3.618 8.081 8.081v48.488c0 4.463-3.618 8.081-8.081 8.081z" fill="#9c9c9c"/></g><g><path d="m102.455 72.15h-24.244c-4.463 0-8.081-3.618-8.081-8.081v-48.488c0-4.463 3.618-8.081 8.081-8.081h24.244c4.463 0 8.081 3.618 8.081 8.081v48.488c.001 4.463-3.618 8.081-8.081 8.081z" fill="#9c9c9c"/></g><g><g><path d="m448.091 504.5h18.018c4.201 0 7.128-4.17 5.7-8.121l-24.959-69.054c-1.446-4.002-5.245-6.668-9.5-6.668h-319.136c-4.255 0-8.054 2.666-9.5 6.668l-24.959 69.054c-1.428 3.951 1.499 8.121 5.7 8.121h18.018c3.404 0 6.443-2.133 7.6-5.334l13.167-36.43c1.157-3.201 4.196-5.334 7.6-5.334h283.884c3.404 0 6.443 2.133 7.6 5.334l13.167 36.43c1.157 3.201 4.196 5.334 7.6 5.334z" fill="#9c9c9c"/></g><g><path d="m471.809 496.379-24.96-69.054c-1.446-4.002-5.245-6.668-9.5-6.668h-24.244c4.255 0 8.054 2.666 9.5 6.668l24.96 69.054c1.066 2.949-.296 6.018-2.801 7.386 1.026.465 2.152.735 3.327.735h18.018c4.201 0 7.128-4.17 5.7-8.121z" fill="#838383"/></g><g><g><path d="m169.882 351.965-59.143-59.143c-7.855-7.855-20.579-7.895-28.483-.088l-8.714 8.606 82.95 82.95h294.008v-12.122c0-11.158-9.045-20.203-20.203-20.203z" fill="#ffe07d"/></g><g><path d="m430.297 351.965h-26.264c11.158 0 20.203 9.045 20.203 20.203v12.122h26.264v-12.122c0-11.157-9.045-20.203-20.203-20.203z" fill="#ffd064"/></g><g><path d="m156.492 384.291-88.585-88.585c-3.156-3.156-8.273-3.156-11.429 0l-14.286 14.286c-3.156 3.156-3.156 8.273 0 11.429l96.278 96.278c1.894 1.894 4.464 2.959 7.143 2.959h306.907c4.463 0 8.081-3.618 8.081-8.081v-20.203c0-4.463-3.618-8.081-8.081-8.081h-296.028z" fill="#e69642"/></g><g><path d="m452.521 384.291h-26.264c4.463 0 8.081 3.618 8.081 8.081v20.203c0 4.463-3.618 8.081-8.081 8.081h26.264c4.463 0 8.081-3.618 8.081-8.081v-20.203c0-4.463-3.618-8.081-8.081-8.081z" fill="#e38523"/></g></g></g><g><g><path d="m134.78 268.122c0-66.948 54.272-121.22 121.22-121.22s121.22 54.272 121.22 121.22z" fill="#df646e"/></g><g><path d="m275.036 263.532c-1.573 1.573-3.17 3.102-4.788 4.59h106.971c0-44.197-23.657-82.864-58.995-104.044.142 34.246-14.538 70.804-43.188 99.454z" fill="#dc4955"/></g><g><path d="m207.512 268.122c0-66.948 21.709-121.22 48.488-121.22s48.488 54.272 48.488 121.22z" fill="#d3effd"/></g><g><path d="m275.036 263.532c-1.573 1.573-3.17 3.102-4.788 4.59h34.24c0-14.158-.974-27.744-2.758-40.375-6.825 12.704-15.733 24.824-26.694 35.785z" fill="#b2e5fb"/></g></g><g><path d="m504.5 171.87c-4.143 0-7.5 3.357-7.5 7.5v304.93c0 7.003-5.697 12.7-12.7 12.7h-4.708c-.114-1.071-.355-2.136-.729-3.171l-23.817-65.896c7.393-1.212 13.057-7.627 13.057-15.358v-20.203c0-6.661-4.209-12.343-10.102-14.567v-5.635c0-15.274-12.426-27.7-27.7-27.7h-66.301c-4.143 0-7.5 3.357-7.5 7.5s3.357 7.5 7.5 7.5h66.3c7.003 0 12.7 5.697 12.7 12.7v4.621h-283.401l-75.418-75.418 3.348-3.306c4.95-4.887 12.984-4.862 17.907.056l59.14 59.149c1.406 1.407 3.314 2.197 5.304 2.197h159.12c4.143 0 7.5-3.357 7.5-7.5s-3.357-7.5-7.5-7.5h-65.5v-68.848h113.72c4.143 0 7.5-3.357 7.5-7.5 0-70.977-57.743-128.72-128.72-128.72s-128.72 57.743-128.72 128.72c0 4.143 3.357 7.5 7.5 7.5h113.72v68.848h-75.513l-56.947-56.956c-10.737-10.727-28.255-10.778-39.05-.12l-3.416 3.373-.364-.364c-2.942-2.943-6.855-4.564-11.018-4.564s-8.075 1.621-11.019 4.564l-14.285 14.285c-6.075 6.075-6.075 15.961 0 22.036l86.433 86.433h-5.107c-7.389 0-14.041 4.669-16.554 11.618l-24.96 69.056c-.374 1.034-.615 2.099-.729 3.17h-48.271c-7.003 0-12.7-5.697-12.7-12.7v-108.7c0-4.143-3.357-7.5-7.5-7.5s-7.5 3.357-7.5 7.5v108.7c0 15.273 12.426 27.7 27.7 27.7h456.6c15.274 0 27.7-12.427 27.7-27.7v-304.93c0-4.142-3.357-7.5-7.5-7.5zm-248.5-17.468c18.655 0 39.356 43.246 40.894 106.22h-81.787c1.537-62.973 22.238-106.22 40.893-106.22zm113.476 106.22h-57.586c-.725-30.505-5.853-59.034-14.639-81.001-3.31-8.274-7.056-15.357-11.149-21.174 45.825 12.591 80.171 53.201 83.374 102.175zm-143.577-102.174c-4.092 5.817-7.839 12.899-11.149 21.174-8.787 21.967-13.914 50.496-14.639 81.001h-57.586c3.202-48.975 37.548-89.585 83.374-102.175zm-82.126 253.947-96.277-96.278c-.043-.042-.171-.17-.171-.411 0-.24.128-.368.171-.411l14.285-14.285c.042-.043.17-.171.411-.171.24 0 .368.128.41.171l88.586 88.586c1.407 1.406 3.314 2.196 5.304 2.196h296.028c.32 0 .581.261.581.581v20.203c0 .32-.261.581-.581.581h-306.907c-.695-.001-1.349-.271-1.84-.762zm-19.943 84.605 11.463-31.714c.083-.229.303-.384.547-.384h283.884c.244 0 .463.154.546.384l11.463 31.714zm324.261 0c-.244 0-.463-.153-.546-.384l-13.168-36.43c-2.225-6.151-8.112-10.284-14.653-10.284h-283.884c-6.541 0-12.43 4.133-14.654 10.284l-13.167 36.43c-.083.229-.303.384-.547.384h-15.968l24.264-67.126c.371-1.027 1.354-1.718 2.446-1.718h319.135c1.093 0 2.076.69 2.447 1.718l24.263 67.126z"/><path d="m512 60.028c0-15.275-12.428-27.703-27.703-27.703h-34.927v-16.744c0-8.592-6.989-15.581-15.581-15.581h-24.244c-8.592 0-15.581 6.989-15.581 15.581v16.744h-275.928v-16.744c0-8.592-6.989-15.581-15.581-15.581h-24.244c-8.592 0-15.581 6.989-15.581 15.581v16.744h-34.927c-15.275 0-27.703 12.428-27.703 27.703v280.572c0 4.143 3.357 7.5 7.5 7.5s7.5-3.357 7.5-7.5v-218.523h482v22.293c0 4.143 3.357 7.5 7.5 7.5s7.5-3.357 7.5-7.5zm-103.036-44.447c0-.32.261-.581.581-.581h24.244c.32 0 .581.261.581.581v48.488c0 .32-.261.581-.581.581h-24.244c-.32 0-.581-.261-.581-.581zm-331.334 0c0-.32.261-.581.581-.581h24.244c.32 0 .581.261.581.581v48.488c0 .32-.261.581-.581.581h-24.244c-.32 0-.581-.261-.581-.581zm-62.63 44.447c0-7.005 5.698-12.703 12.703-12.703h34.927v16.744c0 8.592 6.989 15.581 15.581 15.581h24.244c8.592 0 15.581-6.989 15.581-15.581v-16.744h275.928v16.744c0 8.592 6.989 15.581 15.581 15.581h24.244c8.592 0 15.581-6.989 15.581-15.581v-16.744h34.927c7.005 0 12.703 5.698 12.703 12.703v47.049h-482z"/></g></g></svg>